; NON-PLATED HOLES START AT T1
; THROUGH (PLATED) HOLES START AT T100
M48
INCH
T100C0.038000
T101C0.094488
T102C0.035000
T103C0.080000
T104C0.046111
%
T100
X009016Y002190
X009016Y003190
X009016Y004190
T101
X009016Y011190
X009016Y009190
T102
X004016Y005190
X001016Y002190
X012016Y008190
X001016Y003190
X012016Y012190
X001016Y004190
X004016Y002190
X001016Y005190
X004016Y003190
X006016Y008190
X006016Y012190
X004016Y004190
T103
X014016Y003190
X014016Y008290
T104
X002016Y011190
X002016Y008190
X002016Y009190
X002016Y010190
T00
M30
