G04 MADE WITH FRITZING*
G04 WWW.FRITZING.ORG*
G04 DOUBLE SIDED*
G04 HOLES PLATED*
G04 CONTOUR ON CENTER OF CONTOUR VECTOR*
%ASAXBY*%
%FSLAX23Y23*%
%MOIN*%
%OFA0B0*%
%SFA1.0B1.0*%
%ADD10C,0.083889*%
%ADD11C,0.085000*%
%ADD12C,0.110000*%
%ADD13C,0.088000*%
%ADD14C,0.155669*%
%ADD15R,0.085000X0.085000*%
%ADD16R,0.001000X0.001000*%
%LNMASK0*%
G90*
G70*
G54D10*
X202Y819D03*
X202Y919D03*
X202Y1019D03*
X202Y1119D03*
G54D11*
X102Y519D03*
X402Y519D03*
X102Y419D03*
X402Y419D03*
X102Y319D03*
X402Y319D03*
X102Y219D03*
X402Y219D03*
G54D12*
X1402Y319D03*
X1402Y829D03*
G54D13*
X902Y419D03*
X902Y319D03*
X902Y219D03*
G54D11*
X602Y819D03*
X602Y1219D03*
X1202Y819D03*
X1202Y1219D03*
G54D14*
X902Y919D03*
X902Y1119D03*
G54D15*
X102Y519D03*
G54D16*
X824Y1197D02*
X978Y1197D01*
X824Y1196D02*
X978Y1196D01*
X824Y1195D02*
X978Y1195D01*
X824Y1194D02*
X978Y1194D01*
X824Y1193D02*
X978Y1193D01*
X824Y1192D02*
X978Y1192D01*
X824Y1191D02*
X978Y1191D01*
X824Y1190D02*
X978Y1190D01*
X824Y1189D02*
X978Y1189D01*
X824Y1188D02*
X978Y1188D01*
X824Y1187D02*
X978Y1187D01*
X824Y1186D02*
X978Y1186D01*
X824Y1185D02*
X978Y1185D01*
X824Y1184D02*
X978Y1184D01*
X824Y1183D02*
X978Y1183D01*
X824Y1182D02*
X978Y1182D01*
X824Y1181D02*
X978Y1181D01*
X824Y1180D02*
X978Y1180D01*
X824Y1179D02*
X978Y1179D01*
X824Y1178D02*
X978Y1178D01*
X824Y1177D02*
X978Y1177D01*
X824Y1176D02*
X978Y1176D01*
X824Y1175D02*
X978Y1175D01*
X824Y1174D02*
X978Y1174D01*
X824Y1173D02*
X978Y1173D01*
X824Y1172D02*
X978Y1172D01*
X824Y1171D02*
X978Y1171D01*
X824Y1170D02*
X978Y1170D01*
X824Y1169D02*
X978Y1169D01*
X824Y1168D02*
X978Y1168D01*
X824Y1167D02*
X978Y1167D01*
X824Y1166D02*
X978Y1166D01*
X824Y1165D02*
X978Y1165D01*
X824Y1164D02*
X978Y1164D01*
X824Y1163D02*
X978Y1163D01*
X824Y1162D02*
X899Y1162D01*
X903Y1162D02*
X978Y1162D01*
X824Y1161D02*
X891Y1161D01*
X911Y1161D02*
X978Y1161D01*
X824Y1160D02*
X887Y1160D01*
X915Y1160D02*
X978Y1160D01*
X824Y1159D02*
X884Y1159D01*
X918Y1159D02*
X978Y1159D01*
X824Y1158D02*
X882Y1158D01*
X920Y1158D02*
X978Y1158D01*
X824Y1157D02*
X880Y1157D01*
X922Y1157D02*
X978Y1157D01*
X824Y1156D02*
X878Y1156D01*
X924Y1156D02*
X978Y1156D01*
X824Y1155D02*
X877Y1155D01*
X926Y1155D02*
X978Y1155D01*
X824Y1154D02*
X875Y1154D01*
X927Y1154D02*
X978Y1154D01*
X824Y1153D02*
X874Y1153D01*
X928Y1153D02*
X978Y1153D01*
X824Y1152D02*
X873Y1152D01*
X929Y1152D02*
X978Y1152D01*
X824Y1151D02*
X872Y1151D01*
X931Y1151D02*
X978Y1151D01*
X824Y1150D02*
X871Y1150D01*
X932Y1150D02*
X978Y1150D01*
X824Y1149D02*
X870Y1149D01*
X933Y1149D02*
X978Y1149D01*
X824Y1148D02*
X869Y1148D01*
X933Y1148D02*
X978Y1148D01*
X824Y1147D02*
X868Y1147D01*
X934Y1147D02*
X978Y1147D01*
X824Y1146D02*
X867Y1146D01*
X935Y1146D02*
X978Y1146D01*
X824Y1145D02*
X866Y1145D01*
X936Y1145D02*
X978Y1145D01*
X824Y1144D02*
X866Y1144D01*
X937Y1144D02*
X978Y1144D01*
X824Y1143D02*
X865Y1143D01*
X937Y1143D02*
X978Y1143D01*
X824Y1142D02*
X864Y1142D01*
X938Y1142D02*
X978Y1142D01*
X824Y1141D02*
X864Y1141D01*
X938Y1141D02*
X978Y1141D01*
X824Y1140D02*
X863Y1140D01*
X939Y1140D02*
X978Y1140D01*
X824Y1139D02*
X863Y1139D01*
X939Y1139D02*
X978Y1139D01*
X824Y1138D02*
X862Y1138D01*
X940Y1138D02*
X978Y1138D01*
X824Y1137D02*
X862Y1137D01*
X940Y1137D02*
X978Y1137D01*
X824Y1136D02*
X861Y1136D01*
X941Y1136D02*
X978Y1136D01*
X824Y1135D02*
X861Y1135D01*
X941Y1135D02*
X978Y1135D01*
X824Y1134D02*
X861Y1134D01*
X942Y1134D02*
X978Y1134D01*
X824Y1133D02*
X860Y1133D01*
X942Y1133D02*
X978Y1133D01*
X824Y1132D02*
X860Y1132D01*
X942Y1132D02*
X978Y1132D01*
X824Y1131D02*
X860Y1131D01*
X942Y1131D02*
X978Y1131D01*
X824Y1130D02*
X860Y1130D01*
X943Y1130D02*
X978Y1130D01*
X824Y1129D02*
X859Y1129D01*
X943Y1129D02*
X978Y1129D01*
X824Y1128D02*
X859Y1128D01*
X943Y1128D02*
X978Y1128D01*
X824Y1127D02*
X859Y1127D01*
X943Y1127D02*
X978Y1127D01*
X824Y1126D02*
X859Y1126D01*
X943Y1126D02*
X978Y1126D01*
X824Y1125D02*
X859Y1125D01*
X944Y1125D02*
X978Y1125D01*
X824Y1124D02*
X859Y1124D01*
X944Y1124D02*
X978Y1124D01*
X824Y1123D02*
X859Y1123D01*
X944Y1123D02*
X978Y1123D01*
X824Y1122D02*
X858Y1122D01*
X944Y1122D02*
X978Y1122D01*
X824Y1121D02*
X858Y1121D01*
X944Y1121D02*
X978Y1121D01*
X824Y1120D02*
X858Y1120D01*
X944Y1120D02*
X978Y1120D01*
X824Y1119D02*
X858Y1119D01*
X944Y1119D02*
X978Y1119D01*
X824Y1118D02*
X858Y1118D01*
X944Y1118D02*
X978Y1118D01*
X824Y1117D02*
X858Y1117D01*
X944Y1117D02*
X978Y1117D01*
X824Y1116D02*
X859Y1116D01*
X944Y1116D02*
X978Y1116D01*
X824Y1115D02*
X859Y1115D01*
X944Y1115D02*
X978Y1115D01*
X824Y1114D02*
X859Y1114D01*
X943Y1114D02*
X978Y1114D01*
X824Y1113D02*
X859Y1113D01*
X943Y1113D02*
X978Y1113D01*
X824Y1112D02*
X859Y1112D01*
X943Y1112D02*
X978Y1112D01*
X824Y1111D02*
X859Y1111D01*
X943Y1111D02*
X978Y1111D01*
X824Y1110D02*
X859Y1110D01*
X943Y1110D02*
X978Y1110D01*
X824Y1109D02*
X860Y1109D01*
X942Y1109D02*
X978Y1109D01*
X824Y1108D02*
X860Y1108D01*
X942Y1108D02*
X978Y1108D01*
X824Y1107D02*
X860Y1107D01*
X942Y1107D02*
X978Y1107D01*
X824Y1106D02*
X861Y1106D01*
X942Y1106D02*
X978Y1106D01*
X824Y1105D02*
X861Y1105D01*
X941Y1105D02*
X978Y1105D01*
X824Y1104D02*
X861Y1104D01*
X941Y1104D02*
X978Y1104D01*
X824Y1103D02*
X862Y1103D01*
X941Y1103D02*
X978Y1103D01*
X824Y1102D02*
X862Y1102D01*
X940Y1102D02*
X978Y1102D01*
X824Y1101D02*
X863Y1101D01*
X940Y1101D02*
X978Y1101D01*
X824Y1100D02*
X863Y1100D01*
X939Y1100D02*
X978Y1100D01*
X824Y1099D02*
X864Y1099D01*
X939Y1099D02*
X978Y1099D01*
X824Y1098D02*
X864Y1098D01*
X938Y1098D02*
X978Y1098D01*
X824Y1097D02*
X865Y1097D01*
X937Y1097D02*
X978Y1097D01*
X824Y1096D02*
X865Y1096D01*
X937Y1096D02*
X978Y1096D01*
X824Y1095D02*
X866Y1095D01*
X936Y1095D02*
X978Y1095D01*
X824Y1094D02*
X867Y1094D01*
X935Y1094D02*
X978Y1094D01*
X824Y1093D02*
X868Y1093D01*
X935Y1093D02*
X978Y1093D01*
X824Y1092D02*
X868Y1092D01*
X934Y1092D02*
X978Y1092D01*
X824Y1091D02*
X869Y1091D01*
X933Y1091D02*
X978Y1091D01*
X824Y1090D02*
X870Y1090D01*
X932Y1090D02*
X978Y1090D01*
X824Y1089D02*
X871Y1089D01*
X931Y1089D02*
X978Y1089D01*
X824Y1088D02*
X872Y1088D01*
X930Y1088D02*
X978Y1088D01*
X824Y1087D02*
X874Y1087D01*
X929Y1087D02*
X978Y1087D01*
X824Y1086D02*
X875Y1086D01*
X927Y1086D02*
X978Y1086D01*
X824Y1085D02*
X876Y1085D01*
X926Y1085D02*
X978Y1085D01*
X824Y1084D02*
X878Y1084D01*
X924Y1084D02*
X978Y1084D01*
X824Y1083D02*
X879Y1083D01*
X923Y1083D02*
X978Y1083D01*
X824Y1082D02*
X881Y1082D01*
X921Y1082D02*
X978Y1082D01*
X824Y1081D02*
X884Y1081D01*
X919Y1081D02*
X978Y1081D01*
X824Y1080D02*
X886Y1080D01*
X916Y1080D02*
X978Y1080D01*
X824Y1079D02*
X890Y1079D01*
X913Y1079D02*
X978Y1079D01*
X824Y1078D02*
X895Y1078D01*
X907Y1078D02*
X978Y1078D01*
X824Y1077D02*
X978Y1077D01*
X824Y1076D02*
X978Y1076D01*
X824Y1075D02*
X978Y1075D01*
X824Y1074D02*
X978Y1074D01*
X824Y1073D02*
X978Y1073D01*
X824Y1072D02*
X978Y1072D01*
X824Y1071D02*
X978Y1071D01*
X824Y1070D02*
X978Y1070D01*
X824Y1069D02*
X978Y1069D01*
X824Y1068D02*
X978Y1068D01*
X824Y1067D02*
X978Y1067D01*
X824Y1066D02*
X978Y1066D01*
X824Y1065D02*
X978Y1065D01*
X824Y1064D02*
X978Y1064D01*
X824Y1063D02*
X978Y1063D01*
X824Y1062D02*
X978Y1062D01*
X824Y1061D02*
X978Y1061D01*
X824Y1060D02*
X978Y1060D01*
X824Y1059D02*
X978Y1059D01*
X824Y1058D02*
X978Y1058D01*
X824Y1057D02*
X978Y1057D01*
X824Y1056D02*
X978Y1056D01*
X824Y1055D02*
X978Y1055D01*
X824Y1054D02*
X978Y1054D01*
X824Y1053D02*
X978Y1053D01*
X824Y1052D02*
X978Y1052D01*
X824Y1051D02*
X978Y1051D01*
X824Y1050D02*
X978Y1050D01*
X824Y1049D02*
X978Y1049D01*
X824Y1048D02*
X978Y1048D01*
X824Y1047D02*
X978Y1047D01*
X824Y1046D02*
X978Y1046D01*
X824Y1045D02*
X978Y1045D01*
X824Y1044D02*
X978Y1044D01*
X824Y1043D02*
X978Y1043D01*
X1347Y884D02*
X1456Y884D01*
X1347Y883D02*
X1456Y883D01*
X1347Y882D02*
X1456Y882D01*
X1347Y881D02*
X1456Y881D01*
X1347Y880D02*
X1456Y880D01*
X1347Y879D02*
X1456Y879D01*
X1347Y878D02*
X1456Y878D01*
X1347Y877D02*
X1456Y877D01*
X1347Y876D02*
X1456Y876D01*
X1347Y875D02*
X1456Y875D01*
X1347Y874D02*
X1456Y874D01*
X1347Y873D02*
X1456Y873D01*
X1347Y872D02*
X1456Y872D01*
X1347Y871D02*
X1456Y871D01*
X1347Y870D02*
X1456Y870D01*
X1347Y869D02*
X1456Y869D01*
X1347Y868D02*
X1456Y868D01*
X1347Y867D02*
X1456Y867D01*
X1347Y866D02*
X1456Y866D01*
X1347Y865D02*
X1456Y865D01*
X1347Y864D02*
X1392Y864D01*
X1410Y864D02*
X1456Y864D01*
X1347Y863D02*
X1389Y863D01*
X1414Y863D02*
X1456Y863D01*
X1347Y862D02*
X1386Y862D01*
X1416Y862D02*
X1456Y862D01*
X1347Y861D02*
X1384Y861D01*
X1418Y861D02*
X1456Y861D01*
X1347Y860D02*
X1382Y860D01*
X1420Y860D02*
X1456Y860D01*
X1347Y859D02*
X1380Y859D01*
X1422Y859D02*
X1456Y859D01*
X1347Y858D02*
X1379Y858D01*
X1423Y858D02*
X1456Y858D01*
X1347Y857D02*
X1378Y857D01*
X1424Y857D02*
X1456Y857D01*
X1347Y856D02*
X1377Y856D01*
X1426Y856D02*
X1456Y856D01*
X1347Y855D02*
X1376Y855D01*
X1427Y855D02*
X1456Y855D01*
X1347Y854D02*
X1375Y854D01*
X1428Y854D02*
X1456Y854D01*
X1347Y853D02*
X1374Y853D01*
X1428Y853D02*
X1456Y853D01*
X1347Y852D02*
X1373Y852D01*
X1429Y852D02*
X1456Y852D01*
X1347Y851D02*
X1372Y851D01*
X1430Y851D02*
X1456Y851D01*
X1347Y850D02*
X1371Y850D01*
X1431Y850D02*
X1456Y850D01*
X1347Y849D02*
X1371Y849D01*
X1431Y849D02*
X1456Y849D01*
X1347Y848D02*
X1370Y848D01*
X1432Y848D02*
X1456Y848D01*
X1347Y847D02*
X1370Y847D01*
X1432Y847D02*
X1456Y847D01*
X1347Y846D02*
X1369Y846D01*
X1433Y846D02*
X1456Y846D01*
X1347Y845D02*
X1369Y845D01*
X1433Y845D02*
X1456Y845D01*
X1347Y844D02*
X1368Y844D01*
X1434Y844D02*
X1456Y844D01*
X1347Y843D02*
X1368Y843D01*
X1434Y843D02*
X1456Y843D01*
X1347Y842D02*
X1368Y842D01*
X1435Y842D02*
X1456Y842D01*
X1347Y841D02*
X1367Y841D01*
X1435Y841D02*
X1456Y841D01*
X1347Y840D02*
X1367Y840D01*
X1435Y840D02*
X1456Y840D01*
X1347Y839D02*
X1367Y839D01*
X1435Y839D02*
X1456Y839D01*
X1347Y838D02*
X1366Y838D01*
X1436Y838D02*
X1456Y838D01*
X1347Y837D02*
X1366Y837D01*
X1436Y837D02*
X1456Y837D01*
X1347Y836D02*
X1366Y836D01*
X1436Y836D02*
X1456Y836D01*
X1347Y835D02*
X1366Y835D01*
X1436Y835D02*
X1456Y835D01*
X1347Y834D02*
X1366Y834D01*
X1436Y834D02*
X1456Y834D01*
X1347Y833D02*
X1366Y833D01*
X1436Y833D02*
X1456Y833D01*
X1347Y832D02*
X1366Y832D01*
X1436Y832D02*
X1456Y832D01*
X1347Y831D02*
X1366Y831D01*
X1437Y831D02*
X1456Y831D01*
X1347Y830D02*
X1366Y830D01*
X1437Y830D02*
X1456Y830D01*
X1347Y829D02*
X1366Y829D01*
X1437Y829D02*
X1456Y829D01*
X1347Y828D02*
X1366Y828D01*
X1436Y828D02*
X1456Y828D01*
X1347Y827D02*
X1366Y827D01*
X1436Y827D02*
X1456Y827D01*
X1347Y826D02*
X1366Y826D01*
X1436Y826D02*
X1456Y826D01*
X1347Y825D02*
X1366Y825D01*
X1436Y825D02*
X1456Y825D01*
X1347Y824D02*
X1366Y824D01*
X1436Y824D02*
X1456Y824D01*
X1347Y823D02*
X1366Y823D01*
X1436Y823D02*
X1456Y823D01*
X1347Y822D02*
X1366Y822D01*
X1436Y822D02*
X1456Y822D01*
X1347Y821D02*
X1367Y821D01*
X1435Y821D02*
X1456Y821D01*
X1347Y820D02*
X1367Y820D01*
X1435Y820D02*
X1456Y820D01*
X1347Y819D02*
X1367Y819D01*
X1435Y819D02*
X1456Y819D01*
X1347Y818D02*
X1368Y818D01*
X1435Y818D02*
X1456Y818D01*
X1347Y817D02*
X1368Y817D01*
X1434Y817D02*
X1456Y817D01*
X1347Y816D02*
X1368Y816D01*
X1434Y816D02*
X1456Y816D01*
X1347Y815D02*
X1369Y815D01*
X1433Y815D02*
X1456Y815D01*
X1347Y814D02*
X1369Y814D01*
X1433Y814D02*
X1456Y814D01*
X1347Y813D02*
X1370Y813D01*
X1432Y813D02*
X1456Y813D01*
X1347Y812D02*
X1370Y812D01*
X1432Y812D02*
X1456Y812D01*
X1347Y811D02*
X1371Y811D01*
X1431Y811D02*
X1456Y811D01*
X1347Y810D02*
X1372Y810D01*
X1431Y810D02*
X1456Y810D01*
X1347Y809D02*
X1372Y809D01*
X1430Y809D02*
X1456Y809D01*
X1347Y808D02*
X1373Y808D01*
X1429Y808D02*
X1456Y808D01*
X1347Y807D02*
X1374Y807D01*
X1428Y807D02*
X1456Y807D01*
X1347Y806D02*
X1375Y806D01*
X1427Y806D02*
X1456Y806D01*
X1347Y805D02*
X1376Y805D01*
X1427Y805D02*
X1456Y805D01*
X1347Y804D02*
X1377Y804D01*
X1425Y804D02*
X1456Y804D01*
X1347Y803D02*
X1378Y803D01*
X1424Y803D02*
X1456Y803D01*
X1347Y802D02*
X1379Y802D01*
X1423Y802D02*
X1456Y802D01*
X1347Y801D02*
X1381Y801D01*
X1422Y801D02*
X1456Y801D01*
X1347Y800D02*
X1382Y800D01*
X1420Y800D02*
X1456Y800D01*
X1347Y799D02*
X1384Y799D01*
X1418Y799D02*
X1456Y799D01*
X1347Y798D02*
X1386Y798D01*
X1416Y798D02*
X1456Y798D01*
X1347Y797D02*
X1389Y797D01*
X1413Y797D02*
X1456Y797D01*
X1347Y796D02*
X1392Y796D01*
X1410Y796D02*
X1456Y796D01*
X1347Y795D02*
X1456Y795D01*
X1347Y794D02*
X1456Y794D01*
X1347Y793D02*
X1456Y793D01*
X1347Y792D02*
X1456Y792D01*
X1347Y791D02*
X1456Y791D01*
X1347Y790D02*
X1456Y790D01*
X1347Y789D02*
X1456Y789D01*
X1347Y788D02*
X1456Y788D01*
X1347Y787D02*
X1456Y787D01*
X1347Y786D02*
X1456Y786D01*
X1347Y785D02*
X1456Y785D01*
X1347Y784D02*
X1456Y784D01*
X1347Y783D02*
X1456Y783D01*
X1347Y782D02*
X1456Y782D01*
X1347Y781D02*
X1456Y781D01*
X1347Y780D02*
X1456Y780D01*
X1347Y779D02*
X1456Y779D01*
X1347Y778D02*
X1456Y778D01*
X1347Y777D02*
X1456Y777D01*
X1347Y776D02*
X1456Y776D01*
X1347Y375D02*
X1455Y375D01*
X1347Y374D02*
X1456Y374D01*
X1347Y373D02*
X1456Y373D01*
X1347Y372D02*
X1456Y372D01*
X1347Y371D02*
X1456Y371D01*
X1347Y370D02*
X1456Y370D01*
X1347Y369D02*
X1456Y369D01*
X1347Y368D02*
X1456Y368D01*
X1347Y367D02*
X1456Y367D01*
X1347Y366D02*
X1456Y366D01*
X1347Y365D02*
X1456Y365D01*
X1347Y364D02*
X1456Y364D01*
X1347Y363D02*
X1456Y363D01*
X1347Y362D02*
X1456Y362D01*
X1347Y361D02*
X1456Y361D01*
X1347Y360D02*
X1456Y360D01*
X1347Y359D02*
X1456Y359D01*
X1347Y358D02*
X1456Y358D01*
X1347Y357D02*
X1456Y357D01*
X1347Y356D02*
X1456Y356D01*
X1347Y355D02*
X1396Y355D01*
X1406Y355D02*
X1456Y355D01*
X1347Y354D02*
X1391Y354D01*
X1411Y354D02*
X1456Y354D01*
X1347Y353D02*
X1388Y353D01*
X1415Y353D02*
X1456Y353D01*
X1347Y352D02*
X1385Y352D01*
X1417Y352D02*
X1456Y352D01*
X1347Y351D02*
X1383Y351D01*
X1419Y351D02*
X1456Y351D01*
X1347Y350D02*
X1382Y350D01*
X1421Y350D02*
X1456Y350D01*
X1347Y349D02*
X1380Y349D01*
X1422Y349D02*
X1456Y349D01*
X1347Y348D02*
X1379Y348D01*
X1424Y348D02*
X1456Y348D01*
X1347Y347D02*
X1377Y347D01*
X1425Y347D02*
X1456Y347D01*
X1347Y346D02*
X1376Y346D01*
X1426Y346D02*
X1456Y346D01*
X1347Y345D02*
X1375Y345D01*
X1427Y345D02*
X1456Y345D01*
X1347Y344D02*
X1374Y344D01*
X1428Y344D02*
X1456Y344D01*
X1347Y343D02*
X1374Y343D01*
X1429Y343D02*
X1456Y343D01*
X1347Y342D02*
X1373Y342D01*
X1429Y342D02*
X1456Y342D01*
X1347Y341D02*
X1372Y341D01*
X1430Y341D02*
X1456Y341D01*
X1347Y340D02*
X1371Y340D01*
X1431Y340D02*
X1456Y340D01*
X1347Y339D02*
X1371Y339D01*
X1432Y339D02*
X1456Y339D01*
X1347Y338D02*
X1370Y338D01*
X1432Y338D02*
X1456Y338D01*
X1347Y337D02*
X1370Y337D01*
X1433Y337D02*
X1456Y337D01*
X1347Y336D02*
X1369Y336D01*
X1433Y336D02*
X1456Y336D01*
X1347Y335D02*
X1369Y335D01*
X1434Y335D02*
X1456Y335D01*
X1347Y334D02*
X1368Y334D01*
X1434Y334D02*
X1456Y334D01*
X1347Y333D02*
X1368Y333D01*
X1434Y333D02*
X1456Y333D01*
X1347Y332D02*
X1367Y332D01*
X1435Y332D02*
X1456Y332D01*
X1347Y331D02*
X1367Y331D01*
X1435Y331D02*
X1456Y331D01*
X1347Y330D02*
X1367Y330D01*
X1435Y330D02*
X1456Y330D01*
X1347Y329D02*
X1367Y329D01*
X1436Y329D02*
X1456Y329D01*
X1347Y328D02*
X1366Y328D01*
X1436Y328D02*
X1456Y328D01*
X1347Y327D02*
X1366Y327D01*
X1436Y327D02*
X1456Y327D01*
X1347Y326D02*
X1366Y326D01*
X1436Y326D02*
X1456Y326D01*
X1347Y325D02*
X1366Y325D01*
X1436Y325D02*
X1456Y325D01*
X1347Y324D02*
X1366Y324D01*
X1436Y324D02*
X1456Y324D01*
X1347Y323D02*
X1366Y323D01*
X1436Y323D02*
X1456Y323D01*
X1347Y322D02*
X1366Y322D01*
X1437Y322D02*
X1456Y322D01*
X1347Y321D02*
X1366Y321D01*
X1437Y321D02*
X1456Y321D01*
X1347Y320D02*
X1366Y320D01*
X1437Y320D02*
X1456Y320D01*
X1347Y319D02*
X1366Y319D01*
X1437Y319D02*
X1456Y319D01*
X1347Y318D02*
X1366Y318D01*
X1436Y318D02*
X1456Y318D01*
X1347Y317D02*
X1366Y317D01*
X1436Y317D02*
X1456Y317D01*
X1347Y316D02*
X1366Y316D01*
X1436Y316D02*
X1456Y316D01*
X1347Y315D02*
X1366Y315D01*
X1436Y315D02*
X1456Y315D01*
X1347Y314D02*
X1366Y314D01*
X1436Y314D02*
X1456Y314D01*
X1347Y313D02*
X1366Y313D01*
X1436Y313D02*
X1456Y313D01*
X1347Y312D02*
X1367Y312D01*
X1436Y312D02*
X1456Y312D01*
X1347Y311D02*
X1367Y311D01*
X1435Y311D02*
X1456Y311D01*
X1347Y310D02*
X1367Y310D01*
X1435Y310D02*
X1456Y310D01*
X1347Y309D02*
X1367Y309D01*
X1435Y309D02*
X1456Y309D01*
X1347Y308D02*
X1368Y308D01*
X1434Y308D02*
X1456Y308D01*
X1347Y307D02*
X1368Y307D01*
X1434Y307D02*
X1456Y307D01*
X1347Y306D02*
X1368Y306D01*
X1434Y306D02*
X1456Y306D01*
X1347Y305D02*
X1369Y305D01*
X1433Y305D02*
X1456Y305D01*
X1347Y304D02*
X1369Y304D01*
X1433Y304D02*
X1456Y304D01*
X1347Y303D02*
X1370Y303D01*
X1432Y303D02*
X1456Y303D01*
X1347Y302D02*
X1370Y302D01*
X1432Y302D02*
X1456Y302D01*
X1347Y301D02*
X1371Y301D01*
X1431Y301D02*
X1456Y301D01*
X1347Y300D02*
X1372Y300D01*
X1430Y300D02*
X1456Y300D01*
X1347Y299D02*
X1372Y299D01*
X1430Y299D02*
X1456Y299D01*
X1347Y298D02*
X1373Y298D01*
X1429Y298D02*
X1456Y298D01*
X1347Y297D02*
X1374Y297D01*
X1428Y297D02*
X1456Y297D01*
X1347Y296D02*
X1375Y296D01*
X1427Y296D02*
X1456Y296D01*
X1347Y295D02*
X1376Y295D01*
X1426Y295D02*
X1456Y295D01*
X1347Y294D02*
X1377Y294D01*
X1425Y294D02*
X1456Y294D01*
X1347Y293D02*
X1378Y293D01*
X1424Y293D02*
X1456Y293D01*
X1347Y292D02*
X1380Y292D01*
X1423Y292D02*
X1456Y292D01*
X1347Y291D02*
X1381Y291D01*
X1421Y291D02*
X1456Y291D01*
X1347Y290D02*
X1383Y290D01*
X1420Y290D02*
X1456Y290D01*
X1347Y289D02*
X1385Y289D01*
X1418Y289D02*
X1456Y289D01*
X1347Y288D02*
X1387Y288D01*
X1415Y288D02*
X1456Y288D01*
X1347Y287D02*
X1390Y287D01*
X1413Y287D02*
X1456Y287D01*
X1347Y286D02*
X1394Y286D01*
X1409Y286D02*
X1456Y286D01*
X1347Y285D02*
X1456Y285D01*
X1347Y284D02*
X1456Y284D01*
X1347Y283D02*
X1456Y283D01*
X1347Y282D02*
X1456Y282D01*
X1347Y281D02*
X1456Y281D01*
X1347Y280D02*
X1456Y280D01*
X1347Y279D02*
X1456Y279D01*
X1347Y278D02*
X1456Y278D01*
X1347Y277D02*
X1456Y277D01*
X1347Y276D02*
X1456Y276D01*
X1347Y275D02*
X1456Y275D01*
X1347Y274D02*
X1456Y274D01*
X1347Y273D02*
X1456Y273D01*
X1347Y272D02*
X1456Y272D01*
X1347Y271D02*
X1456Y271D01*
X1347Y270D02*
X1456Y270D01*
X1347Y269D02*
X1456Y269D01*
X1347Y268D02*
X1456Y268D01*
X1347Y267D02*
X1456Y267D01*
X1347Y266D02*
X1456Y266D01*
D02*
G04 End of Mask0*
M02*