G04 MADE WITH FRITZING*
G04 WWW.FRITZING.ORG*
G04 DOUBLE SIDED*
G04 HOLES PLATED*
G04 CONTOUR ON CENTER OF CONTOUR VECTOR*
%ASAXBY*%
%FSLAX23Y23*%
%MOIN*%
%OFA0B0*%
%SFA1.0B1.0*%
%ADD10C,0.073889*%
%ADD11C,0.075000*%
%ADD12C,0.100000*%
%ADD13C,0.078000*%
%ADD14C,0.145669*%
%ADD15R,0.075000X0.075000*%
%ADD16C,0.024000*%
%ADD17R,0.001000X0.001000*%
%LNCOPPER0*%
G90*
G70*
G54D10*
X202Y819D03*
X202Y919D03*
X202Y1019D03*
X202Y1119D03*
G54D11*
X102Y519D03*
X402Y519D03*
X102Y419D03*
X402Y419D03*
X102Y319D03*
X402Y319D03*
X102Y219D03*
X402Y219D03*
G54D12*
X1402Y319D03*
X1402Y829D03*
G54D13*
X902Y419D03*
X902Y319D03*
X902Y219D03*
G54D11*
X602Y819D03*
X602Y1219D03*
X1202Y819D03*
X1202Y1219D03*
G54D14*
X902Y919D03*
X902Y1119D03*
G54D15*
X102Y519D03*
G54D16*
X1174Y1210D02*
X957Y1137D01*
D02*
X872Y425D02*
X430Y513D01*
D02*
X1352Y329D02*
X931Y413D01*
D02*
X1351Y826D02*
X1230Y820D01*
D02*
X232Y1034D02*
X576Y1206D01*
D02*
X303Y420D02*
X303Y217D01*
D02*
X303Y217D02*
X373Y219D01*
D02*
X226Y995D02*
X303Y920D01*
D02*
X303Y920D02*
X303Y820D01*
D02*
X303Y820D02*
X303Y618D01*
D02*
X303Y618D02*
X303Y420D01*
G54D17*
X829Y1192D02*
X973Y1192D01*
X829Y1191D02*
X973Y1191D01*
X829Y1190D02*
X973Y1190D01*
X829Y1189D02*
X973Y1189D01*
X829Y1188D02*
X973Y1188D01*
X829Y1187D02*
X973Y1187D01*
X829Y1186D02*
X973Y1186D01*
X829Y1185D02*
X973Y1185D01*
X829Y1184D02*
X973Y1184D01*
X829Y1183D02*
X973Y1183D01*
X829Y1182D02*
X973Y1182D01*
X829Y1181D02*
X973Y1181D01*
X829Y1180D02*
X973Y1180D01*
X829Y1179D02*
X973Y1179D01*
X829Y1178D02*
X973Y1178D01*
X829Y1177D02*
X973Y1177D01*
X829Y1176D02*
X973Y1176D01*
X829Y1175D02*
X973Y1175D01*
X829Y1174D02*
X973Y1174D01*
X829Y1173D02*
X973Y1173D01*
X829Y1172D02*
X973Y1172D01*
X829Y1171D02*
X973Y1171D01*
X829Y1170D02*
X973Y1170D01*
X829Y1169D02*
X973Y1169D01*
X829Y1168D02*
X973Y1168D01*
X829Y1167D02*
X899Y1167D01*
X903Y1167D02*
X973Y1167D01*
X829Y1166D02*
X891Y1166D01*
X912Y1166D02*
X973Y1166D01*
X829Y1165D02*
X887Y1165D01*
X915Y1165D02*
X973Y1165D01*
X829Y1164D02*
X884Y1164D01*
X918Y1164D02*
X973Y1164D01*
X829Y1163D02*
X881Y1163D01*
X921Y1163D02*
X973Y1163D01*
X829Y1162D02*
X879Y1162D01*
X923Y1162D02*
X973Y1162D01*
X829Y1161D02*
X877Y1161D01*
X925Y1161D02*
X973Y1161D01*
X829Y1160D02*
X876Y1160D01*
X926Y1160D02*
X973Y1160D01*
X829Y1159D02*
X874Y1159D01*
X928Y1159D02*
X973Y1159D01*
X829Y1158D02*
X873Y1158D01*
X929Y1158D02*
X973Y1158D01*
X829Y1157D02*
X872Y1157D01*
X931Y1157D02*
X973Y1157D01*
X829Y1156D02*
X870Y1156D01*
X932Y1156D02*
X973Y1156D01*
X829Y1155D02*
X869Y1155D01*
X933Y1155D02*
X973Y1155D01*
X829Y1154D02*
X868Y1154D01*
X934Y1154D02*
X973Y1154D01*
X829Y1153D02*
X867Y1153D01*
X935Y1153D02*
X973Y1153D01*
X829Y1152D02*
X866Y1152D01*
X936Y1152D02*
X973Y1152D01*
X829Y1151D02*
X865Y1151D01*
X937Y1151D02*
X973Y1151D01*
X829Y1150D02*
X864Y1150D01*
X938Y1150D02*
X973Y1150D01*
X829Y1149D02*
X863Y1149D01*
X939Y1149D02*
X973Y1149D01*
X829Y1148D02*
X863Y1148D01*
X939Y1148D02*
X973Y1148D01*
X829Y1147D02*
X862Y1147D01*
X940Y1147D02*
X973Y1147D01*
X829Y1146D02*
X861Y1146D01*
X941Y1146D02*
X973Y1146D01*
X829Y1145D02*
X861Y1145D01*
X942Y1145D02*
X973Y1145D01*
X829Y1144D02*
X860Y1144D01*
X942Y1144D02*
X973Y1144D01*
X829Y1143D02*
X859Y1143D01*
X943Y1143D02*
X973Y1143D01*
X829Y1142D02*
X859Y1142D01*
X943Y1142D02*
X973Y1142D01*
X829Y1141D02*
X858Y1141D01*
X944Y1141D02*
X973Y1141D01*
X829Y1140D02*
X858Y1140D01*
X944Y1140D02*
X973Y1140D01*
X829Y1139D02*
X857Y1139D01*
X945Y1139D02*
X973Y1139D01*
X829Y1138D02*
X857Y1138D01*
X945Y1138D02*
X973Y1138D01*
X829Y1137D02*
X857Y1137D01*
X946Y1137D02*
X973Y1137D01*
X829Y1136D02*
X856Y1136D01*
X946Y1136D02*
X973Y1136D01*
X829Y1135D02*
X856Y1135D01*
X946Y1135D02*
X973Y1135D01*
X829Y1134D02*
X856Y1134D01*
X947Y1134D02*
X973Y1134D01*
X829Y1133D02*
X855Y1133D01*
X947Y1133D02*
X973Y1133D01*
X829Y1132D02*
X855Y1132D01*
X947Y1132D02*
X973Y1132D01*
X829Y1131D02*
X855Y1131D01*
X947Y1131D02*
X973Y1131D01*
X829Y1130D02*
X854Y1130D01*
X948Y1130D02*
X973Y1130D01*
X829Y1129D02*
X854Y1129D01*
X948Y1129D02*
X973Y1129D01*
X829Y1128D02*
X854Y1128D01*
X948Y1128D02*
X973Y1128D01*
X829Y1127D02*
X854Y1127D01*
X948Y1127D02*
X973Y1127D01*
X829Y1126D02*
X854Y1126D01*
X948Y1126D02*
X973Y1126D01*
X829Y1125D02*
X854Y1125D01*
X949Y1125D02*
X973Y1125D01*
X829Y1124D02*
X854Y1124D01*
X949Y1124D02*
X973Y1124D01*
X829Y1123D02*
X854Y1123D01*
X949Y1123D02*
X973Y1123D01*
X829Y1122D02*
X853Y1122D01*
X949Y1122D02*
X973Y1122D01*
X829Y1121D02*
X853Y1121D01*
X949Y1121D02*
X973Y1121D01*
X829Y1120D02*
X853Y1120D01*
X949Y1120D02*
X973Y1120D01*
X829Y1119D02*
X853Y1119D01*
X949Y1119D02*
X973Y1119D01*
X829Y1118D02*
X853Y1118D01*
X949Y1118D02*
X973Y1118D01*
X829Y1117D02*
X853Y1117D01*
X949Y1117D02*
X973Y1117D01*
X829Y1116D02*
X854Y1116D01*
X949Y1116D02*
X973Y1116D01*
X829Y1115D02*
X854Y1115D01*
X949Y1115D02*
X973Y1115D01*
X829Y1114D02*
X854Y1114D01*
X948Y1114D02*
X973Y1114D01*
X829Y1113D02*
X854Y1113D01*
X948Y1113D02*
X973Y1113D01*
X829Y1112D02*
X854Y1112D01*
X948Y1112D02*
X973Y1112D01*
X829Y1111D02*
X854Y1111D01*
X948Y1111D02*
X973Y1111D01*
X829Y1110D02*
X854Y1110D01*
X948Y1110D02*
X973Y1110D01*
X829Y1109D02*
X855Y1109D01*
X948Y1109D02*
X973Y1109D01*
X829Y1108D02*
X855Y1108D01*
X947Y1108D02*
X973Y1108D01*
X829Y1107D02*
X855Y1107D01*
X947Y1107D02*
X973Y1107D01*
X829Y1106D02*
X855Y1106D01*
X947Y1106D02*
X973Y1106D01*
X829Y1105D02*
X856Y1105D01*
X946Y1105D02*
X973Y1105D01*
X829Y1104D02*
X856Y1104D01*
X946Y1104D02*
X973Y1104D01*
X829Y1103D02*
X857Y1103D01*
X946Y1103D02*
X973Y1103D01*
X829Y1102D02*
X857Y1102D01*
X945Y1102D02*
X973Y1102D01*
X829Y1101D02*
X857Y1101D01*
X945Y1101D02*
X973Y1101D01*
X829Y1100D02*
X858Y1100D01*
X944Y1100D02*
X973Y1100D01*
X829Y1099D02*
X858Y1099D01*
X944Y1099D02*
X973Y1099D01*
X829Y1098D02*
X859Y1098D01*
X943Y1098D02*
X973Y1098D01*
X829Y1097D02*
X859Y1097D01*
X943Y1097D02*
X973Y1097D01*
X829Y1096D02*
X860Y1096D01*
X942Y1096D02*
X973Y1096D01*
X829Y1095D02*
X860Y1095D01*
X942Y1095D02*
X973Y1095D01*
X829Y1094D02*
X861Y1094D01*
X941Y1094D02*
X973Y1094D01*
X829Y1093D02*
X862Y1093D01*
X940Y1093D02*
X973Y1093D01*
X829Y1092D02*
X863Y1092D01*
X940Y1092D02*
X973Y1092D01*
X829Y1091D02*
X863Y1091D01*
X939Y1091D02*
X973Y1091D01*
X829Y1090D02*
X864Y1090D01*
X938Y1090D02*
X973Y1090D01*
X829Y1089D02*
X865Y1089D01*
X937Y1089D02*
X973Y1089D01*
X829Y1088D02*
X866Y1088D01*
X936Y1088D02*
X973Y1088D01*
X829Y1087D02*
X867Y1087D01*
X935Y1087D02*
X973Y1087D01*
X829Y1086D02*
X868Y1086D01*
X934Y1086D02*
X973Y1086D01*
X829Y1085D02*
X869Y1085D01*
X933Y1085D02*
X973Y1085D01*
X829Y1084D02*
X870Y1084D01*
X932Y1084D02*
X973Y1084D01*
X829Y1083D02*
X871Y1083D01*
X931Y1083D02*
X973Y1083D01*
X829Y1082D02*
X872Y1082D01*
X930Y1082D02*
X973Y1082D01*
X829Y1081D02*
X874Y1081D01*
X928Y1081D02*
X973Y1081D01*
X829Y1080D02*
X875Y1080D01*
X927Y1080D02*
X973Y1080D01*
X829Y1079D02*
X877Y1079D01*
X925Y1079D02*
X973Y1079D01*
X829Y1078D02*
X879Y1078D01*
X923Y1078D02*
X973Y1078D01*
X829Y1077D02*
X881Y1077D01*
X921Y1077D02*
X973Y1077D01*
X829Y1076D02*
X883Y1076D01*
X919Y1076D02*
X973Y1076D01*
X829Y1075D02*
X886Y1075D01*
X916Y1075D02*
X973Y1075D01*
X829Y1074D02*
X890Y1074D01*
X913Y1074D02*
X973Y1074D01*
X829Y1073D02*
X895Y1073D01*
X907Y1073D02*
X973Y1073D01*
X829Y1072D02*
X973Y1072D01*
X829Y1071D02*
X973Y1071D01*
X829Y1070D02*
X973Y1070D01*
X829Y1069D02*
X973Y1069D01*
X829Y1068D02*
X973Y1068D01*
X829Y1067D02*
X973Y1067D01*
X829Y1066D02*
X973Y1066D01*
X829Y1065D02*
X973Y1065D01*
X829Y1064D02*
X973Y1064D01*
X829Y1063D02*
X973Y1063D01*
X829Y1062D02*
X973Y1062D01*
X829Y1061D02*
X973Y1061D01*
X829Y1060D02*
X973Y1060D01*
X829Y1059D02*
X973Y1059D01*
X829Y1058D02*
X973Y1058D01*
X829Y1057D02*
X973Y1057D01*
X829Y1056D02*
X973Y1056D01*
X829Y1055D02*
X973Y1055D01*
X829Y1054D02*
X973Y1054D01*
X829Y1053D02*
X973Y1053D01*
X829Y1052D02*
X973Y1052D01*
X829Y1051D02*
X973Y1051D01*
X829Y1050D02*
X973Y1050D01*
X829Y1049D02*
X973Y1049D01*
X829Y1048D02*
X973Y1048D01*
X1352Y880D02*
X1450Y880D01*
X1352Y879D02*
X1451Y879D01*
X1352Y878D02*
X1451Y878D01*
X1352Y877D02*
X1451Y877D01*
X1352Y876D02*
X1451Y876D01*
X1352Y875D02*
X1451Y875D01*
X1352Y874D02*
X1451Y874D01*
X1352Y873D02*
X1451Y873D01*
X1352Y872D02*
X1451Y872D01*
X1352Y871D02*
X1451Y871D01*
X1352Y870D02*
X1451Y870D01*
X1352Y869D02*
X1392Y869D01*
X1410Y869D02*
X1451Y869D01*
X1352Y868D02*
X1388Y868D01*
X1414Y868D02*
X1451Y868D01*
X1352Y867D02*
X1385Y867D01*
X1417Y867D02*
X1451Y867D01*
X1352Y866D02*
X1383Y866D01*
X1419Y866D02*
X1451Y866D01*
X1352Y865D02*
X1381Y865D01*
X1421Y865D02*
X1451Y865D01*
X1352Y864D02*
X1380Y864D01*
X1423Y864D02*
X1451Y864D01*
X1352Y863D02*
X1378Y863D01*
X1424Y863D02*
X1451Y863D01*
X1352Y862D02*
X1377Y862D01*
X1426Y862D02*
X1451Y862D01*
X1352Y861D02*
X1375Y861D01*
X1427Y861D02*
X1451Y861D01*
X1352Y860D02*
X1374Y860D01*
X1428Y860D02*
X1451Y860D01*
X1352Y859D02*
X1373Y859D01*
X1429Y859D02*
X1451Y859D01*
X1352Y858D02*
X1372Y858D01*
X1430Y858D02*
X1451Y858D01*
X1352Y857D02*
X1371Y857D01*
X1431Y857D02*
X1451Y857D01*
X1352Y856D02*
X1370Y856D01*
X1432Y856D02*
X1451Y856D01*
X1352Y855D02*
X1369Y855D01*
X1433Y855D02*
X1451Y855D01*
X1352Y854D02*
X1369Y854D01*
X1434Y854D02*
X1451Y854D01*
X1352Y853D02*
X1368Y853D01*
X1434Y853D02*
X1451Y853D01*
X1352Y852D02*
X1367Y852D01*
X1435Y852D02*
X1451Y852D01*
X1352Y851D02*
X1367Y851D01*
X1436Y851D02*
X1451Y851D01*
X1352Y850D02*
X1366Y850D01*
X1436Y850D02*
X1451Y850D01*
X1352Y849D02*
X1365Y849D01*
X1437Y849D02*
X1451Y849D01*
X1352Y848D02*
X1365Y848D01*
X1437Y848D02*
X1451Y848D01*
X1352Y847D02*
X1364Y847D01*
X1438Y847D02*
X1451Y847D01*
X1352Y846D02*
X1364Y846D01*
X1438Y846D02*
X1451Y846D01*
X1352Y845D02*
X1364Y845D01*
X1439Y845D02*
X1451Y845D01*
X1352Y844D02*
X1363Y844D01*
X1439Y844D02*
X1451Y844D01*
X1352Y843D02*
X1363Y843D01*
X1439Y843D02*
X1451Y843D01*
X1352Y842D02*
X1362Y842D01*
X1440Y842D02*
X1451Y842D01*
X1352Y841D02*
X1362Y841D01*
X1440Y841D02*
X1451Y841D01*
X1352Y840D02*
X1362Y840D01*
X1440Y840D02*
X1451Y840D01*
X1352Y839D02*
X1362Y839D01*
X1441Y839D02*
X1451Y839D01*
X1352Y838D02*
X1361Y838D01*
X1441Y838D02*
X1451Y838D01*
X1352Y837D02*
X1361Y837D01*
X1441Y837D02*
X1451Y837D01*
X1352Y836D02*
X1361Y836D01*
X1441Y836D02*
X1451Y836D01*
X1352Y835D02*
X1361Y835D01*
X1441Y835D02*
X1451Y835D01*
X1352Y834D02*
X1361Y834D01*
X1441Y834D02*
X1451Y834D01*
X1352Y833D02*
X1361Y833D01*
X1441Y833D02*
X1451Y833D01*
X1352Y832D02*
X1361Y832D01*
X1441Y832D02*
X1451Y832D01*
X1352Y831D02*
X1361Y831D01*
X1442Y831D02*
X1451Y831D01*
X1352Y830D02*
X1361Y830D01*
X1442Y830D02*
X1451Y830D01*
X1352Y829D02*
X1361Y829D01*
X1442Y829D02*
X1451Y829D01*
X1352Y828D02*
X1361Y828D01*
X1441Y828D02*
X1451Y828D01*
X1352Y827D02*
X1361Y827D01*
X1441Y827D02*
X1451Y827D01*
X1352Y826D02*
X1361Y826D01*
X1441Y826D02*
X1451Y826D01*
X1352Y825D02*
X1361Y825D01*
X1441Y825D02*
X1451Y825D01*
X1352Y824D02*
X1361Y824D01*
X1441Y824D02*
X1451Y824D01*
X1352Y823D02*
X1361Y823D01*
X1441Y823D02*
X1451Y823D01*
X1352Y822D02*
X1361Y822D01*
X1441Y822D02*
X1451Y822D01*
X1352Y821D02*
X1362Y821D01*
X1441Y821D02*
X1451Y821D01*
X1352Y820D02*
X1362Y820D01*
X1440Y820D02*
X1451Y820D01*
X1352Y819D02*
X1362Y819D01*
X1440Y819D02*
X1451Y819D01*
X1352Y818D02*
X1362Y818D01*
X1440Y818D02*
X1451Y818D01*
X1352Y817D02*
X1363Y817D01*
X1439Y817D02*
X1451Y817D01*
X1352Y816D02*
X1363Y816D01*
X1439Y816D02*
X1451Y816D01*
X1352Y815D02*
X1364Y815D01*
X1439Y815D02*
X1451Y815D01*
X1352Y814D02*
X1364Y814D01*
X1438Y814D02*
X1451Y814D01*
X1352Y813D02*
X1364Y813D01*
X1438Y813D02*
X1451Y813D01*
X1352Y812D02*
X1365Y812D01*
X1437Y812D02*
X1451Y812D01*
X1352Y811D02*
X1365Y811D01*
X1437Y811D02*
X1451Y811D01*
X1352Y810D02*
X1366Y810D01*
X1436Y810D02*
X1451Y810D01*
X1352Y809D02*
X1367Y809D01*
X1436Y809D02*
X1451Y809D01*
X1352Y808D02*
X1367Y808D01*
X1435Y808D02*
X1451Y808D01*
X1352Y807D02*
X1368Y807D01*
X1434Y807D02*
X1451Y807D01*
X1352Y806D02*
X1369Y806D01*
X1434Y806D02*
X1451Y806D01*
X1352Y805D02*
X1369Y805D01*
X1433Y805D02*
X1451Y805D01*
X1352Y804D02*
X1370Y804D01*
X1432Y804D02*
X1451Y804D01*
X1352Y803D02*
X1371Y803D01*
X1431Y803D02*
X1451Y803D01*
X1352Y802D02*
X1372Y802D01*
X1430Y802D02*
X1451Y802D01*
X1352Y801D02*
X1373Y801D01*
X1429Y801D02*
X1451Y801D01*
X1352Y800D02*
X1374Y800D01*
X1428Y800D02*
X1451Y800D01*
X1352Y799D02*
X1375Y799D01*
X1427Y799D02*
X1451Y799D01*
X1352Y798D02*
X1377Y798D01*
X1425Y798D02*
X1451Y798D01*
X1352Y797D02*
X1378Y797D01*
X1424Y797D02*
X1451Y797D01*
X1352Y796D02*
X1380Y796D01*
X1422Y796D02*
X1451Y796D01*
X1352Y795D02*
X1381Y795D01*
X1421Y795D02*
X1451Y795D01*
X1352Y794D02*
X1383Y794D01*
X1419Y794D02*
X1451Y794D01*
X1352Y793D02*
X1386Y793D01*
X1417Y793D02*
X1451Y793D01*
X1352Y792D02*
X1388Y792D01*
X1414Y792D02*
X1451Y792D01*
X1352Y791D02*
X1392Y791D01*
X1410Y791D02*
X1451Y791D01*
X1352Y790D02*
X1451Y790D01*
X1352Y789D02*
X1451Y789D01*
X1352Y788D02*
X1451Y788D01*
X1352Y787D02*
X1451Y787D01*
X1352Y786D02*
X1451Y786D01*
X1352Y785D02*
X1451Y785D01*
X1352Y784D02*
X1451Y784D01*
X1352Y783D02*
X1451Y783D01*
X1352Y782D02*
X1451Y782D01*
X1352Y781D02*
X1451Y781D01*
X1352Y370D02*
X1450Y370D01*
X1352Y369D02*
X1451Y369D01*
X1352Y368D02*
X1451Y368D01*
X1352Y367D02*
X1451Y367D01*
X1352Y366D02*
X1451Y366D01*
X1352Y365D02*
X1451Y365D01*
X1352Y364D02*
X1451Y364D01*
X1352Y363D02*
X1451Y363D01*
X1352Y362D02*
X1451Y362D01*
X1352Y361D02*
X1451Y361D01*
X1352Y360D02*
X1396Y360D01*
X1406Y360D02*
X1451Y360D01*
X1352Y359D02*
X1391Y359D01*
X1412Y359D02*
X1451Y359D01*
X1352Y358D02*
X1387Y358D01*
X1415Y358D02*
X1451Y358D01*
X1352Y357D02*
X1385Y357D01*
X1417Y357D02*
X1451Y357D01*
X1352Y356D02*
X1383Y356D01*
X1420Y356D02*
X1451Y356D01*
X1352Y355D02*
X1381Y355D01*
X1421Y355D02*
X1451Y355D01*
X1352Y354D02*
X1379Y354D01*
X1423Y354D02*
X1451Y354D01*
X1352Y353D02*
X1378Y353D01*
X1425Y353D02*
X1451Y353D01*
X1352Y352D02*
X1376Y352D01*
X1426Y352D02*
X1451Y352D01*
X1352Y351D02*
X1375Y351D01*
X1427Y351D02*
X1451Y351D01*
X1352Y350D02*
X1374Y350D01*
X1428Y350D02*
X1451Y350D01*
X1352Y349D02*
X1373Y349D01*
X1429Y349D02*
X1451Y349D01*
X1352Y348D02*
X1372Y348D01*
X1430Y348D02*
X1451Y348D01*
X1352Y347D02*
X1371Y347D01*
X1431Y347D02*
X1451Y347D01*
X1352Y346D02*
X1370Y346D01*
X1432Y346D02*
X1451Y346D01*
X1352Y345D02*
X1369Y345D01*
X1433Y345D02*
X1451Y345D01*
X1352Y344D02*
X1368Y344D01*
X1434Y344D02*
X1451Y344D01*
X1352Y343D02*
X1368Y343D01*
X1435Y343D02*
X1451Y343D01*
X1352Y342D02*
X1367Y342D01*
X1435Y342D02*
X1451Y342D01*
X1352Y341D02*
X1366Y341D01*
X1436Y341D02*
X1451Y341D01*
X1352Y340D02*
X1366Y340D01*
X1436Y340D02*
X1451Y340D01*
X1352Y339D02*
X1365Y339D01*
X1437Y339D02*
X1451Y339D01*
X1352Y338D02*
X1365Y338D01*
X1437Y338D02*
X1451Y338D01*
X1352Y337D02*
X1364Y337D01*
X1438Y337D02*
X1451Y337D01*
X1352Y336D02*
X1364Y336D01*
X1438Y336D02*
X1451Y336D01*
X1352Y335D02*
X1363Y335D01*
X1439Y335D02*
X1451Y335D01*
X1352Y334D02*
X1363Y334D01*
X1439Y334D02*
X1451Y334D01*
X1352Y333D02*
X1363Y333D01*
X1440Y333D02*
X1451Y333D01*
X1352Y332D02*
X1362Y332D01*
X1440Y332D02*
X1451Y332D01*
X1352Y331D02*
X1362Y331D01*
X1440Y331D02*
X1451Y331D01*
X1352Y330D02*
X1362Y330D01*
X1440Y330D02*
X1451Y330D01*
X1352Y329D02*
X1362Y329D01*
X1441Y329D02*
X1451Y329D01*
X1352Y328D02*
X1361Y328D01*
X1441Y328D02*
X1451Y328D01*
X1352Y327D02*
X1361Y327D01*
X1441Y327D02*
X1451Y327D01*
X1352Y326D02*
X1361Y326D01*
X1441Y326D02*
X1451Y326D01*
X1352Y325D02*
X1361Y325D01*
X1441Y325D02*
X1451Y325D01*
X1352Y324D02*
X1361Y324D01*
X1441Y324D02*
X1451Y324D01*
X1352Y323D02*
X1361Y323D01*
X1441Y323D02*
X1451Y323D01*
X1352Y322D02*
X1361Y322D01*
X1442Y322D02*
X1451Y322D01*
X1352Y321D02*
X1361Y321D01*
X1442Y321D02*
X1451Y321D01*
X1352Y320D02*
X1361Y320D01*
X1442Y320D02*
X1451Y320D01*
X1352Y319D02*
X1361Y319D01*
X1442Y319D02*
X1451Y319D01*
X1352Y318D02*
X1361Y318D01*
X1441Y318D02*
X1451Y318D01*
X1352Y317D02*
X1361Y317D01*
X1441Y317D02*
X1451Y317D01*
X1352Y316D02*
X1361Y316D01*
X1441Y316D02*
X1451Y316D01*
X1352Y315D02*
X1361Y315D01*
X1441Y315D02*
X1451Y315D01*
X1352Y314D02*
X1361Y314D01*
X1441Y314D02*
X1451Y314D01*
X1352Y313D02*
X1361Y313D01*
X1441Y313D02*
X1451Y313D01*
X1352Y312D02*
X1361Y312D01*
X1441Y312D02*
X1451Y312D01*
X1352Y311D02*
X1362Y311D01*
X1440Y311D02*
X1451Y311D01*
X1352Y310D02*
X1362Y310D01*
X1440Y310D02*
X1451Y310D01*
X1352Y309D02*
X1362Y309D01*
X1440Y309D02*
X1451Y309D01*
X1352Y308D02*
X1363Y308D01*
X1440Y308D02*
X1451Y308D01*
X1352Y307D02*
X1363Y307D01*
X1439Y307D02*
X1451Y307D01*
X1352Y306D02*
X1363Y306D01*
X1439Y306D02*
X1451Y306D01*
X1352Y305D02*
X1364Y305D01*
X1439Y305D02*
X1451Y305D01*
X1352Y304D02*
X1364Y304D01*
X1438Y304D02*
X1451Y304D01*
X1352Y303D02*
X1365Y303D01*
X1438Y303D02*
X1451Y303D01*
X1352Y302D02*
X1365Y302D01*
X1437Y302D02*
X1451Y302D01*
X1352Y301D02*
X1366Y301D01*
X1437Y301D02*
X1451Y301D01*
X1352Y300D02*
X1366Y300D01*
X1436Y300D02*
X1451Y300D01*
X1352Y299D02*
X1367Y299D01*
X1435Y299D02*
X1451Y299D01*
X1352Y298D02*
X1367Y298D01*
X1435Y298D02*
X1451Y298D01*
X1352Y297D02*
X1368Y297D01*
X1434Y297D02*
X1451Y297D01*
X1352Y296D02*
X1369Y296D01*
X1433Y296D02*
X1451Y296D01*
X1352Y295D02*
X1370Y295D01*
X1433Y295D02*
X1451Y295D01*
X1352Y294D02*
X1371Y294D01*
X1432Y294D02*
X1451Y294D01*
X1352Y293D02*
X1371Y293D01*
X1431Y293D02*
X1451Y293D01*
X1352Y292D02*
X1372Y292D01*
X1430Y292D02*
X1451Y292D01*
X1352Y291D02*
X1373Y291D01*
X1429Y291D02*
X1451Y291D01*
X1352Y290D02*
X1375Y290D01*
X1428Y290D02*
X1451Y290D01*
X1352Y289D02*
X1376Y289D01*
X1426Y289D02*
X1451Y289D01*
X1352Y288D02*
X1377Y288D01*
X1425Y288D02*
X1451Y288D01*
X1352Y287D02*
X1379Y287D01*
X1424Y287D02*
X1451Y287D01*
X1352Y286D02*
X1380Y286D01*
X1422Y286D02*
X1451Y286D01*
X1352Y285D02*
X1382Y285D01*
X1420Y285D02*
X1451Y285D01*
X1352Y284D02*
X1384Y284D01*
X1418Y284D02*
X1451Y284D01*
X1352Y283D02*
X1386Y283D01*
X1416Y283D02*
X1451Y283D01*
X1352Y282D02*
X1389Y282D01*
X1413Y282D02*
X1451Y282D01*
X1352Y281D02*
X1394Y281D01*
X1409Y281D02*
X1451Y281D01*
X1352Y280D02*
X1451Y280D01*
X1352Y279D02*
X1451Y279D01*
X1352Y278D02*
X1451Y278D01*
X1352Y277D02*
X1451Y277D01*
X1352Y276D02*
X1451Y276D01*
X1352Y275D02*
X1451Y275D01*
X1352Y274D02*
X1451Y274D01*
X1352Y273D02*
X1451Y273D01*
X1352Y272D02*
X1451Y272D01*
X1352Y271D02*
X1451Y271D01*
D02*
G04 End of Copper0*
M02*